arm26_states
version=1
nRows=4
nColumns=17
inDegrees=yes

# SIMM Motion File Header:
name arm26_states
datacolumns 17
datarows 4
otherdata 1
range 8.760000 8.780000
endheader
time	/jointset/r_shoulder/r_shoulder_elev/value	/jointset/r_shoulder/r_shoulder_elev/speed	/jointset/r_elbow/r_elbow_flex/value	/jointset/r_elbow/r_elbow_flex/speed	/forceset/TRIlong/activation	/forceset/TRIlong/fiber_length	/forceset/TRIlat/activation	/forceset/TRIlat/fiber_length	/forceset/TRImed/activation	/forceset/TRImed/fiber_length	/forceset/BIClong/activation	/forceset/BIClong/fiber_length	/forceset/BICshort/activation	/forceset/BICshort/fiber_length	/forceset/BRA/activation	/forceset/BRA/fiber_length
      8.76000000	     -4.38431029	      3.09364608	   -114.27342708	      7.71462576	      0.06959550	      0.16239137	      0.75732800	      0.09777148	   -965.87784478	      0.09507325	    -59.59125145	      0.10786717	    -24.16847054	      0.10438453	    377.71979179	      0.05119141
      8.76760287	     -4.36078338	      3.09511381	   -114.21480021	      7.70829699	      0.06955293	      0.16238802	      0.75832325	      0.09775167	   -968.38149553	      0.09505467	    -59.77978737	      0.10790709	    -24.21268989	      0.10442836	    377.17823854	      0.05121402
      8.77520573	     -4.33725137	      3.09501691	   -114.15619975	      7.70750095	      0.06951499	      0.16238468	      0.75894837	      0.09773186	   -970.88514629	      0.09503609	    -59.96832329	      0.10794697	    -24.25690924	      0.10447216	    376.63668528	      0.05123663
      8.78000000	     -4.32241334	      3.09495815	   -114.11925176	      7.70522287	      0.06949321	      0.16238257	      0.75921685	      0.09771955	   -972.46391651	      0.09502437	    -60.08721163	      0.10797211	    -24.28479339	      0.10449976	    376.29518871	      0.05125088
